<svg data-v-0dd9719b="" version="1.0" xmlns="http://www.w3.org/2000/svg" xmlns:xlink="http://www.w3.org/1999/xlink" width="100%" height="100%" viewBox="0 0 340.000000 250.000000" preserveAspectRatio="xMidYMid meet" color-interpolation-filters="sRGB" style="margin: auto;"> <rect data-v-0dd9719b="" x="0" y="0" width="100%" height="100%" fill="#fff" fill-opacity="1" class="background"></rect> <rect data-v-0dd9719b="" x="0" y="0" width="100%" height="100%" fill="url(#watermark)" fill-opacity="1" class="watermarklayer"></rect> <g data-v-0dd9719b="" fill="#333" class="icon-text-wrapper icon-svg-group iconsvg" transform="translate(49.51000213623047,98.8372859954834)"><g class="iconsvg-imagesvg" transform="translate(0,0)"><g><rect fill="#333" fill-opacity="0" stroke-width="2" x="0" y="0" width="60" height="52.32542928654277" class="image-rect"></rect> <svg x="0" y="0" width="60" height="52.32542928654277" filtersec="colorsb2736504567" class="image-svg-svg primary" style="overflow: visible;"><svg xmlns="http://www.w3.org/2000/svg" viewBox="-0.008033030666410923 0 245.82754516601562 214.3842315673828"><path d="M39.65 172.91c.26-.59.82-.65 1.29-.81 9.88-3.32 19.61-7.06 29.42-10.59q20.39-7.35 40.74-14.78a8 8 0 0 1 2.66-.49q17.65-.3 35.32-.64l29.29-.59c1.63 0 3.26 0 4.88-.17 1.24-.09 1.35.39 1 1.43a95.91 95.91 0 0 1-8.56 20.31 93.61 93.61 0 0 1-29.24 31.68 92.1 92.1 0 0 1-36.85 14.83 94.15 94.15 0 0 1-98.15-47.66 93.75 93.75 0 0 1-3.31-83.14 93.39 93.39 0 0 1 33.38-39.68 91.56 91.56 0 0 1 34.2-14.28 92.74 92.74 0 0 1 35-.25 102.19 102.19 0 0 1 15.5 4.18c1.86.65 1.87.74.4 2.12-3.19 3-6.4 6-9.58 9.1a1.74 1.74 0 0 1-1.9.48A79.31 79.31 0 0 0 36.5 65.73a76.48 76.48 0 0 0-20.28 38.46c-4.62 23.18 0 44.52 14.05 63.58 11.47 15.52 26.77 25.48 45.52 30a76.34 76.34 0 0 0 30.63 1.11 78.1 78.1 0 0 0 44.26-23.07c1.37-1.4 1.35-1.6-.59-2.1-8-2.08-15.91-4.11-23.87-6.16-4.81-1.24-9.63-2.43-14.42-3.74-1.91-.53-3.72 0-5.54.24-7.83 1-15.64 2-23.46 3.09-8.47 1.15-16.94 2.34-25.42 3.51q-8.66 1.19-17.32 2.33a1.09 1.09 0 0 1-.41-.07z" fill="#44a8ad"></path><path d="M35.93 167.73c1.39-1.48 2.78-3 4.19-4.45l36-37.65q9.33-9.75 18.65-19.52a5.58 5.58 0 0 1 2.38-1.5l73.89-24.75q25.77-8.64 51.55-17.25l21.76-7.31c.44-.15.89-.28 1.45-.46.11.63-.27 1-.51 1.33q-21.06 32.61-42.11 65.24a3.62 3.62 0 0 1-2.9 1.88c-15.75 2-31.49 4.09-47.24 6.13-13.71 1.78-27.42 3.5-41.13 5.3-2.25.3-4.19 1.59-6.23 2.49q-32.08 14.14-64.16 28.37L36.11 168z" fill="#ed564d"></path><path d="M32.41 163.89q2.61-5.17 5.21-10.37 6.27-12.4 12.57-24.81 8.94-17.66 17.91-35.3c1.52-3 3.08-6 4.54-9a4.73 4.73 0 0 1 2-2.12q10.89-6.11 21.74-12.26l24.56-14q13.53-7.68 27.08-15.32 13.29-7.53 26.57-15.1l28.48-16.04q8-4.53 16-9A2.42 2.42 0 0 1 220.5 0c-1 1.53-2 3-3 4.41q-16.81 24-33.65 47.89c-1.48 2.11-3 4.23-4.43 6.35a3.72 3.72 0 0 1-1.75 1.43L134.23 77.7 93.94 94c-2.66 1.08-5.31 2.17-8 3.24a5.2 5.2 0 0 0-2.23 1.72q-12.19 15.6-24.45 31.14-10.84 13.83-21.67 27.68L32.67 164z" fill="#44a8ad"></path></svg></svg> <!----></g></g> <g transform="translate(67,5.9527130126953125)"><g data-gra="path-name" fill-rule="" class="tp-name iconsvg-namesvg"><g transform="scale(1)"><g><path d="M18.49 0L4.72 0 4.72-38.9 17.13-38.9Q20.71-38.9 23.31-38.2 25.9-37.49 27.57-36.19 29.24-34.89 30.04-33 30.84-31.11 30.84-28.75L30.84-28.75Q30.84-27.31 30.39-25.98 29.95-24.65 29.04-23.51 28.13-22.37 26.76-21.48 25.38-20.58 23.54-20.01L23.54-20.01Q27.8-19.17 29.97-16.94 32.14-14.71 32.14-11.08L32.14-11.08Q32.14-8.61 31.24-6.57 30.33-4.53 28.57-3.07 26.82-1.6 24.29-0.8 21.75 0 18.49 0L18.49 0ZM18.38-17.73L9.99-17.73 9.99-4.18 18.41-4.18Q20.66-4.18 22.28-4.7 23.89-5.21 24.94-6.15 25.98-7.09 26.47-8.38 26.96-9.67 26.96-11.21L26.96-11.21Q26.96-14.23 24.83-15.98 22.7-17.73 18.38-17.73L18.38-17.73ZM9.99-34.75L9.99-21.48 16.94-21.48Q19.17-21.48 20.8-21.96 22.43-22.45 23.5-23.32 24.57-24.19 25.09-25.43 25.6-26.66 25.6-28.13L25.6-28.13Q25.6-31.55 23.54-33.15 21.48-34.75 17.13-34.75L17.13-34.75 9.99-34.75ZM38.44-27.5L43.28-27.5 43.28-9.96Q43.28-6.84 44.71-5.13 46.15-3.42 49.06-3.42L49.06-3.42Q51.18-3.42 53.05-4.43 54.92-5.43 56.5-7.22L56.5-7.22 56.5-27.5 61.33-27.5 61.33 0 58.45 0Q57.42 0 57.15-1L57.15-1 56.77-3.96Q54.98-1.98 52.75-0.77 50.52 0.43 47.65 0.43L47.65 0.43Q45.39 0.43 43.67-0.31 41.95-1.06 40.78-2.42 39.61-3.77 39.03-5.7 38.44-7.63 38.44-9.96L38.44-9.96 38.44-27.5ZM88.48-27.5L88.48-25.44Q88.48-24.92 88.29-24.45 88.1-23.97 87.8-23.59L87.8-23.59 72.92-3.77 87.94-3.77 87.94 0 67.22 0 67.22-2.01Q67.22-2.36 67.4-2.84 67.57-3.31 67.9-3.75L67.9-3.75 82.86-23.7 68.06-23.7 68.06-27.5 88.48-27.5ZM113.57-27.5L113.57-25.44Q113.57-24.92 113.38-24.45 113.19-23.97 112.89-23.59L112.89-23.59 98.01-3.77 113.02-3.77 113.02 0 92.31 0 92.31-2.01Q92.31-2.36 92.48-2.84 92.66-3.31 92.99-3.75L92.99-3.75 107.95-23.7 93.15-23.7 93.15-27.5 113.57-27.5ZM122.74 0L119.62 0 119.62-39.99 124.48-39.99 124.48-23.54Q126.19-25.52 128.4-26.73 130.62-27.94 133.47-27.94L133.47-27.94Q135.86-27.94 137.78-27.04 139.71-26.14 141.07-24.37 142.43-22.59 143.16-19.97 143.89-17.35 143.89-13.93L143.89-13.93Q143.89-10.89 143.08-8.27 142.26-5.65 140.73-3.73 139.19-1.82 136.98-0.72 134.77 0.38 132 0.38L132 0.38Q129.34 0.38 127.48-0.65 125.62-1.68 124.24-3.53L124.24-3.53 123.99-1.03Q123.77 0 122.74 0L122.74 0ZM131.89-24.08L131.89-24.08Q129.53-24.08 127.75-23 125.97-21.91 124.48-19.93L124.48-19.93 124.48-6.62Q125.78-4.83 127.37-4.1 128.96-3.37 130.91-3.37L130.91-3.37Q134.77-3.37 136.83-6.11 138.9-8.85 138.9-13.93L138.9-13.93Q138.9-16.62 138.42-18.54 137.95-20.47 137.05-21.71 136.15-22.94 134.85-23.51 133.55-24.08 131.89-24.08ZM150.35-27.5L155.19-27.5 155.19 0 150.35 0 150.35-27.5ZM156.27-36.14L156.27-36.14Q156.27-35.43 155.99-34.82 155.7-34.21 155.23-33.73 154.75-33.26 154.13-32.99 153.5-32.71 152.8-32.71L152.8-32.71Q152.09-32.71 151.48-32.99 150.87-33.26 150.39-33.73 149.92-34.21 149.65-34.82 149.38-35.43 149.38-36.14L149.38-36.14Q149.38-36.84 149.65-37.48 149.92-38.12 150.39-38.59 150.87-39.07 151.48-39.34 152.09-39.61 152.8-39.61L152.8-39.61Q153.5-39.61 154.13-39.34 154.75-39.07 155.23-38.59 155.7-38.12 155.99-37.48 156.27-36.84 156.27-36.14ZM172.05 0.43L172.05 0.43Q168.79 0.43 167.04-1.38 165.29-3.2 165.29-6.62L165.29-6.62 165.29-23.46 161.97-23.46Q161.54-23.46 161.24-23.71 160.94-23.97 160.94-24.52L160.94-24.52 160.94-26.44 165.45-27.01 166.56-35.51Q166.62-35.92 166.91-36.18 167.21-36.43 167.67-36.43L167.67-36.43 170.12-36.43 170.12-26.96 177.99-26.96 177.99-23.46 170.12-23.46 170.12-6.95Q170.12-5.21 170.96-4.37 171.8-3.53 173.13-3.53L173.13-3.53Q173.89-3.53 174.45-3.73 175-3.94 175.41-4.18 175.82-4.43 176.1-4.63 176.39-4.83 176.61-4.83L176.61-4.83Q176.99-4.83 177.29-4.37L177.29-4.37 178.7-2.06Q177.45-0.9 175.68-0.23 173.92 0.43 172.05 0.43Z" transform="translate(-4.71999979019165, 39.9900016784668)"></path></g> <!----> <!----> <!----> <!----> <!----> <!----> <!----></g></g> <!----></g></g><defs v-gra="od"></defs></svg>